<?xml version="1.0" encoding="UTF-8" standalone="no"?>
<svg
   version="1.0"
   width="961.49353pt"
   height="1258.6729pt"
   viewBox="0 0 961.49353 1258.6729"
   preserveAspectRatio="xMidYMid"
   id="svg280"
   sodipodi:docname="Logo_PCB2.svg"
   inkscape:version="1.4.2 (ebf0e940d0, 2025-05-08)"
   xmlns:inkscape="http://www.inkscape.org/namespaces/inkscape"
   xmlns:sodipodi="http://sodipodi.sourceforge.net/DTD/sodipodi-0.dtd"
   xmlns="http://www.w3.org/2000/svg"
   xmlns:svg="http://www.w3.org/2000/svg">
  <defs
     id="defs280" />
  <sodipodi:namedview
     id="namedview280"
     pagecolor="#ffffff"
     bordercolor="#000000"
     borderopacity="0.25"
     inkscape:showpageshadow="2"
     inkscape:pageopacity="0.0"
     inkscape:pagecheckerboard="0"
     inkscape:deskcolor="#d1d1d1"
     inkscape:document-units="pt"
     inkscape:zoom="0.26616211"
     inkscape:cx="636.82993"
     inkscape:cy="606.77306"
     inkscape:window-width="2560"
     inkscape:window-height="1440"
     inkscape:window-x="0"
     inkscape:window-y="0"
     inkscape:window-maximized="1"
     inkscape:current-layer="layer1" />
  <metadata
     id="metadata1">
Created by potrace 1.15, written by Peter Selinger 2001-2017
</metadata>
  <style
     id="style1">
    path {
      fill: black;
    }
    @media (prefers-color-scheme: dark) {
      path {
        fill: white;
      }
    }
  </style>
  <g
     inkscape:groupmode="layer"
     id="layer1"
     inkscape:label="Layer 1"
     style="display:inline;stroke:#000000;stroke-opacity:1">
    <path
       style="fill:#d8c43a;fill-opacity:1;stroke:none;stroke-width:3.26835;stroke-dasharray:none;stroke-opacity:1"
       d="m 539.26527,887.98404 c 16.19123,23.96379 21.52582,43.1687 28.89411,70.62414 17.1118,63.76132 76.47819,52.06372 29.80432,-69.54552 -11.0051,-28.6739 -24.84337,-44.51757 -38.64986,-53.78461 -22.89078,-15.3645 -67.07978,-16.90243 -20.04857,52.70599 z"
       id="path3"
       sodipodi:nodetypes="sssss" />
    <path
       style="display:inline;fill:#d8c43a;fill-opacity:1;stroke:none;stroke-width:3.26835;stroke-dasharray:none;stroke-opacity:1"
       d="m 497.77259,1094.1971 c -17.11348,23.3141 -33.15259,37.0517 -53.90998,56.474 -48.20591,45.1055 -6.51134,82.5145 93.10393,2.2898 23.92057,-19.2644 31.91163,-40.6117 33.59069,-57.1549 2.7839,-27.4282 -39.30236,-47.2227 -72.78464,-1.6089 z"
       id="path3-4"
       sodipodi:nodetypes="sssss" />
    <path
       style="display:inline;fill:#d8c43a;fill-opacity:1;stroke:none;stroke-width:3.26835;stroke-dasharray:none;stroke-opacity:1"
       d="m 675.9972,126.5292 c -1.70281,1.47101 -5.99622,3.98214 -20.20097,12.58571 -11.07337,6.70694 -31.65545,5.65751 -39.79614,0.38811 -25.34232,-16.40388 -46.48938,-19.44112 -49.91658,-20.12844 -59.10354,-11.85312 5.99814,119.11665 93.59572,80.89538 60.45474,-26.37808 39.74349,-93.97744 16.31797,-73.74076 z"
       id="path3-4-6"
       sodipodi:nodetypes="ssssss" />
    <path
       style="display:inline;fill:#d8c43a;fill-opacity:1;stroke:none;stroke-width:3.26835;stroke-dasharray:none;stroke-opacity:1"
       d="m 686.28214,374.32618 c 3.36098,-0.26966 58.6915,0.97707 65.1561,1.06954 60.27422,0.86219 -50.71837,-62.55071 -90.42794,-30.03602 -14.32474,11.72927 -5.58179,33.39669 3.10637,31.9613 10.70302,-1.76826 14.76844,-2.40135 22.16547,-2.99482 z"
       id="path3-4-6-7"
       sodipodi:nodetypes="sssss" />
    <path
       style="display:inline;fill:#d8c43a;fill-opacity:1;stroke:none;stroke-width:3.26835;stroke-dasharray:none;stroke-opacity:1"
       d="m 582.64445,560.08494 c 22.08403,8.9518 -0.96198,45.17792 26.80033,32.7006 45.98761,-20.66838 -19.33637,-86.95893 -54.5628,-57.68206 -14.23856,11.83374 -21.27279,19.44913 -13.33182,25.98377 8.37656,6.89309 26.97999,-6.72357 41.09429,-1.00231 z"
       id="path3-4-6-7-2"
       sodipodi:nodetypes="sssss" />
    <path
       style="display:inline;fill:#d8c43a;fill-opacity:1;stroke:none;stroke-width:3.26835;stroke-dasharray:none;stroke-opacity:1"
       d="m 319.37594,1203.3794 c -22.56979,6.3955 -78.81142,11.2198 -97.4322,2.029 -80.35109,-39.6598 -123.391993,20.4697 37.3227,35.9916 30.57112,2.9526 83.84938,1.8666 94.59606,-10.8222 17.81776,-21.0376 -11.41376,-33.7364 -34.48656,-27.1984 z"
       id="path3-4-1"
       sodipodi:nodetypes="sssss" />
    <path
       style="display:inline;fill:#d8c43a;fill-opacity:1;stroke:none;stroke-width:3.55979;stroke-dasharray:none;stroke-opacity:1"
       d="m 415.07043,510.98955 c -4.36255,-6.55646 -12.46211,-9.95387 -20.7845,-4.90744 -13.87395,8.4127 -17.22154,39.25258 -22.2878,62.93191 -5.23357,24.46137 -9.80235,40.57044 2.54189,54.27525 7.36573,8.17758 22.86077,7.97319 24.48824,-2.74316 5.84234,-38.47007 23.36784,-98.5468 16.04217,-109.55656 z"
       id="path3-9"
       sodipodi:nodetypes="ssssss" />
    <path
       style="display:inline;fill:#d8c43a;fill-opacity:1;stroke:none;stroke-width:3.26835;stroke-dasharray:none;stroke-opacity:1"
       d="m 580.44214,375.46801 c 2.01359,-7.23089 -8.37312,-33.62566 -16.92208,-34.98537 -14.25167,-2.26673 -41.20973,15.14702 -60.95921,28.9167 -20.4017,14.22441 -52.32447,42.09172 -54.60068,59.11862 -1.35817,10.15985 27.26616,19.33143 35.80532,12.70533 30.65428,-23.78664 93.29542,-53.61299 96.67665,-65.75528 z"
       id="path3-9-9"
       sodipodi:nodetypes="ssssss" />
    <path
       style="display:inline;fill:#d8c43a;fill-opacity:1;stroke:none;stroke-width:3.26835;stroke-dasharray:none;stroke-opacity:1"
       d="m 481.61683,246.473 c 13.66398,-15.31074 -6.14839,-22.3995 -20.13686,-21.79395 -37.22422,1.61142 -87.9309,36.4315 -119.57732,70.68571 -16.87728,18.26804 -73.01578,110.55593 -73.09897,143.17544 -0.0744,29.18026 36.97168,19.5687 40.58437,9.3819 6.60101,-18.61306 33.50125,-79.51148 70.95191,-120.16835 46.93143,-50.9493 95.33905,-74.62732 101.27687,-81.28075 z"
       id="path3-9-9-9"
       sodipodi:nodetypes="sssssss" />
    <path
       style="display:inline;fill:#d8c43a;fill-opacity:1;stroke:none;stroke-width:3.26835;stroke-dasharray:none;stroke-opacity:1"
       d="m 422.4011,789.67443 c 23.44982,16.10708 27.56945,18.75614 56.50856,37.84998 14.39683,9.49893 35.65554,-20.28208 5.03175,-42.91418 -22.54213,-16.65945 -28.23755,-25.33388 -44.81387,-24.02126 -17.25511,1.36637 -32.59677,18.18455 -16.72644,29.08546 z"
       id="path3-2"
       sodipodi:nodetypes="sssss" />
    <path
       style="display:inline;fill:#d8c43a;fill-opacity:1;stroke:none;stroke-width:3.26835;stroke-dasharray:none;stroke-opacity:1"
       d="m 299.03338,640.46003 c -2.30572,-28.35517 -2.85088,-33.22258 -6.30422,-67.72071 -1.71801,-17.16236 -41.75778,-27.18494 -39.98577,10.85305 1.30439,27.99971 6.62379,51.98132 18.10367,64.01087 11.94995,12.52214 29.74678,12.04696 28.18632,-7.14321 z"
       id="path3-2-1"
       sodipodi:nodetypes="sssss" />
    <path
       style="display:inline;fill:#d8c43a;fill-opacity:1;stroke:none;stroke-width:3.26835;stroke-dasharray:none;stroke-opacity:1"
       d="m 168.01247,476.09008 c 6.67458,-3.33388 10.93874,-19.03536 13.67173,-22.776 1.85374,-2.5372 0.81747,-4.79313 -0.51354,-5.39672 -23.85459,-10.81769 -46.12521,9.00841 -51.77297,18.87077 -12.83022,22.4047 26.69287,15.25682 38.61478,9.30195 z"
       id="path3-2-1-2"
       sodipodi:nodetypes="sssss" />
    <path
       style="display:inline;fill:#d8c43a;fill-opacity:1;stroke:none;stroke-width:3.26835;stroke-dasharray:none;stroke-opacity:1"
       d="m 357.25502,794.13335 c -13.60319,-24.9857 -16.07483,-29.21416 -33.21751,-59.3501 -8.52828,-14.99222 -44.96654,-17.4319 -27.92573,16.62158 12.54373,25.06671 16.56188,64.55743 37.21637,67.0255 17.18684,2.05371 33.13322,-7.38719 23.92687,-24.29698 z"
       id="path3-2-1-3"
       sodipodi:nodetypes="sssss" />
    <path
       style="display:inline;fill:#d8c43a;fill-opacity:1;stroke:none;stroke-width:3.26835;stroke-dasharray:none;stroke-opacity:1"
       d="m 850.20685,292.43086 c -54.96699,4.07756 -43.12013,42.95423 -21.38678,49.11944 22.44666,6.36756 18.47468,-6.0898 46.29348,-13.98376 27.81882,-7.89395 0.33058,-37.00781 -24.9067,-35.13568 z"
       id="path4-8"
       sodipodi:nodetypes="ssss" />
    <path
       style="display:inline;fill:#d8c43a;fill-opacity:1;stroke:none;stroke-width:3.26835;stroke-dasharray:none;stroke-opacity:1"
       d="m 796.40915,185.62006 c 14.94383,20.4232 40.34828,16.93631 59.77523,17.43444 19.42695,0.49813 28.39327,3.98502 21.91763,-18.4307 -6.47565,-22.41571 -14.94383,-12.45317 -36.36331,-31.88012 -21.41947,-19.42696 -60.27337,12.45317 -45.32955,32.87638 z"
       id="path4"
       sodipodi:nodetypes="sssss" />
  </g>
</svg>
