<?xml version="1.0" encoding="UTF-8" standalone="no"?>
<svg
   width="24"
   height="24"
   viewBox="0 0 24 24"
   fill="none"
   stroke="currentColor"
   stroke-width="2"
   stroke-linecap="round"
   stroke-linejoin="round"
   class="lucide lucide-lamp-desk-icon lucide-lamp-desk"
   version="1.1"
   id="svg4"
   sodipodi:docname="lamp-desk.svg"
   inkscape:version="1.4.2 (ebf0e940d0, 2025-05-08)"
   xmlns:inkscape="http://www.inkscape.org/namespaces/inkscape"
   xmlns:sodipodi="http://sodipodi.sourceforge.net/DTD/sodipodi-0.dtd"
   xmlns="http://www.w3.org/2000/svg"
   xmlns:svg="http://www.w3.org/2000/svg">
  <defs
     id="defs4" />
  <sodipodi:namedview
     id="namedview4"
     pagecolor="#505050"
     bordercolor="#eeeeee"
     borderopacity="1"
     inkscape:showpageshadow="0"
     inkscape:pageopacity="0"
     inkscape:pagecheckerboard="0"
     inkscape:deskcolor="#505050"
     inkscape:zoom="30.666667"
     inkscape:cx="15.929348"
     inkscape:cy="12.994565"
     inkscape:window-width="2560"
     inkscape:window-height="1440"
     inkscape:window-x="0"
     inkscape:window-y="0"
     inkscape:window-maximized="1"
     inkscape:current-layer="layer1" />
  <g
     inkscape:groupmode="layer"
     id="layer1"
     inkscape:label="Layer 1">
    <path
       d="M10.293 2.293a1 1 0 0 1 1.414 0l2.5 2.5 5.994 1.227a1 1 0 0 1 .506 1.687l-7 7a1 1 0 0 1-1.687-.506l-1.227-5.994-2.5-2.5a1 1 0 0 1 0-1.414z"
       id="path1" />
    <path
       d="m14.207 4.793-3.414 3.414"
       id="path2" />
    <path
       d="M3 20a2 2 0 0 1 2-2h4a2 2 0 0 1 2 2v1a1 1 0 0 1-1 1H4a1 1 0 0 1-1-1z"
       id="path3" />
    <path
       d="m9.086 6.5-4.793 4.793a1 1 0 0 0-.18 1.17L7 18"
       id="path4" />
  </g>
</svg>
